<svg xmlns="http://www.w3.org/2000/svg" width="64" height="64" viewBox="0 0 64 64" fill="none">
  <!-- Chunky 90s cartoon pointing hand — cream glove, ink outline, mint cuff -->
  <path
    d="M28.5 8.5c1.6-1.2 3.8-.7 4.6 1.1l.3.7c.4-1.9 2.6-2.9 4.3-2.1 1.5.7 2.2 2.4 1.8 4l-.2.8c.8-1.4 2.7-1.8 4.1-.9 1.4.9 1.8 2.7 1.1 4.1l-1.2 2.3c.9-.6 2.2-.5 3 .4 1 .9 1.1 2.4.3 3.5L38 34.5l-.6 12.2c-.2 3.4-3 6-6.4 6.1l-6.1.2c-3.2.1-6.1-2-6.9-5.1L14.2 32.2c-.7-2.5.6-5.1 3-6.1 1.9-.8 4.1-.2 5.3 1.4l1.5 2.1V14.8c0-2.1 1.4-3.9 3.4-4.5.4-.1.7-.2 1.1-.2z"
    fill="#FFF8E8"
    stroke="#14261C"
    stroke-width="2.4"
    stroke-linejoin="round"
  />
  <path
    d="M22.2 28.5c.4 2.8 1.1 5.1 1.1 5.1M27.8 12.2v16.8M33.2 11.4v16.2M38.4 14.8v12.4"
    stroke="#14261C"
    stroke-width="1.7"
    stroke-linecap="round"
    opacity="0.55"
  />
  <path
    d="M18.5 47.5c1.2 4.2 5.1 7.1 9.5 7.2l5.8.2c4.8.1 8.9-3.5 9.4-8.3"
    stroke="#14261C"
    stroke-width="2.2"
    stroke-linecap="round"
    fill="none"
  />
  <path
    d="M20.5 52.5c2.8 3.8 7.4 5.8 12.1 5.6l3.2-.2c3.4-.2 6.2-2.1 7.6-4.9"
    fill="#7DFFB3"
    stroke="#14261C"
    stroke-width="2.2"
    stroke-linejoin="round"
  />
  <circle cx="24.2" cy="22.8" r="1.3" fill="#14261C" opacity="0.25"/>
</svg>
